<svg width="337" height="89" viewBox="0 0 337 89" fill="none" xmlns="http://www.w3.org/2000/svg">
<path d="M27.765 25.8168C42.5578 25.8168 51.0921 34.9886 51.0921 49.2557V86.7545C51.0921 87.3067 50.6444 87.7545 50.0921 87.7545H38.551C37.9987 87.7545 37.551 87.3067 37.551 86.7545V83.6738C37.551 82.7312 36.3144 82.2701 35.6245 82.9124C31.9057 86.375 26.7525 88.5471 20.71 88.5471C9.55844 88.5471 0 82.4326 0 70.2036C0 57.6349 11.0377 50.1616 22.7582 50.1616H36.6452C37.1455 50.1616 37.551 49.756 37.551 49.2557C37.551 40.9898 32.658 37.9326 26.2857 37.9326C20.2315 37.9326 14.0782 40.1029 9.30641 42.3258C8.76927 42.576 8.12996 42.3178 7.92658 41.7612L4.52988 32.4662C4.3498 31.9734 4.58142 31.4246 5.06178 31.2136C12.789 27.819 19.6416 25.8168 27.765 25.8168ZM37.551 63.4097V62.598C37.551 62.0457 37.1033 61.598 36.551 61.598H25.603C18.2066 61.598 15.0204 64.2023 15.0204 69.5242C15.0204 73.6005 18.6617 76.5445 24.2375 76.5445C30.6098 76.5445 37.551 72.4682 37.551 63.4097Z" fill="white"/>
<path d="M127.776 25.8168C139.155 25.8168 147.462 33.0636 147.462 47.3308V86.7545C147.462 87.3067 147.014 87.7545 146.462 87.7545H134.807C134.254 87.7545 133.807 87.3067 133.807 86.7545V52.313C133.807 44.7265 132.214 38.4987 124.134 38.4987C117.193 38.4987 114.121 43.7074 113.097 51.5204V86.7545C113.097 87.3067 112.649 87.7545 112.097 87.7545H100.556C100.003 87.7545 99.5555 87.3067 99.5555 86.7545V52.313C99.5555 44.7265 97.8487 38.4987 89.8833 38.4987C83.315 38.4987 80.0151 43.882 78.8621 50.0723C78.851 50.1316 78.8456 50.1919 78.8456 50.2522V86.7545C78.8456 87.3067 78.3979 87.7545 77.8456 87.7545H66.1907C65.6384 87.7545 65.1907 87.3067 65.1907 86.7545V27.6094C65.1907 27.0571 65.6384 26.6094 66.1907 26.6094H77.8456C78.3979 26.6094 78.8456 27.0571 78.8456 27.6094V29.9078C78.8456 30.8731 80.1535 31.3335 80.854 30.6695C84.4752 27.2368 89.2863 25.8168 94.8901 25.8168C100.747 25.8168 105.932 28.3041 109.294 33.103C109.713 33.7013 110.619 33.7379 111.077 33.1691C114.91 28.4155 120.327 25.8168 127.776 25.8168Z" fill="white"/>
<path d="M166.918 17.098C161.797 17.098 158.611 13.701 158.611 8.49236C158.611 3.28371 161.797 0 166.918 0C171.925 0 175.111 3.28371 175.111 8.49236C175.111 13.701 171.925 17.098 166.918 17.098ZM173.632 86.7545C173.632 87.3067 173.184 87.7545 172.632 87.7545H161.091C160.538 87.7545 160.091 87.3067 160.091 86.7545V27.6094C160.091 27.0571 160.538 26.6094 161.091 26.6094H172.632C173.184 26.6094 173.632 27.0571 173.632 27.6094V86.7545Z" fill="white"/>
<path d="M214.962 75.299C221.123 75.299 226.257 71.6214 229.096 66.1098C229.347 65.6234 229.93 65.3982 230.431 65.6183L241.242 70.3674C241.748 70.5896 241.979 71.181 241.741 71.6793C236.8 82.0114 226.804 88.3206 215.303 88.3206C197.21 88.3206 184.807 76.2048 184.807 57.0687C184.807 37.8193 197.21 25.8168 215.303 25.8168C226.808 25.8168 236.807 32.0233 241.746 42.4598C241.981 42.9578 241.75 43.5469 241.245 43.7685L230.437 48.5163C229.934 48.7375 229.348 48.5088 229.1 48.0181C226.261 42.4057 221.125 38.7252 214.962 38.7252C205.176 38.7252 199.714 46.8779 199.714 57.0687C199.714 67.2596 205.176 75.299 214.962 75.299Z" fill="white"/>
<path d="M294.286 27.6094C294.286 27.0571 294.733 26.6094 295.286 26.6094H306.827C307.379 26.6094 307.827 27.0571 307.827 27.6094V86.7545C307.827 87.3067 307.379 87.7545 306.827 87.7545H295.286C294.733 87.7545 294.286 87.3067 294.286 86.7545V83.2403C294.286 82.2835 293.011 81.8275 292.323 82.493C287.746 86.9246 281.502 88.5471 274.486 88.5471C263.107 88.5471 252.752 81.3003 252.752 67.0331V27.6094C252.752 27.0571 253.2 26.6094 253.752 26.6094H265.407C265.959 26.6094 266.407 27.0571 266.407 27.6094V62.0509C266.407 69.6374 270.845 75.8652 279.607 75.8652C287.422 75.8652 292.418 70.032 294.26 62.1618C294.277 62.0884 294.286 62.0129 294.286 61.9375V27.6094Z" fill="white"/>
<path d="M328.807 71.902C333.814 71.902 337 75.1858 337 80.3944C337 85.6031 333.814 89 328.807 89C323.686 89 320.5 85.6031 320.5 80.3944C320.5 75.1858 323.686 71.902 328.807 71.902Z" fill="#1CA989"/>
</svg>
