<svg width="537" height="71" viewBox="0 0 537 71" fill="none" xmlns="http://www.w3.org/2000/svg">
<path d="M0.211126 70V6.64H31.0271C38.8351 6.704 44.5951 8.208 48.3071 11.152C52.0191 14.032 53.8751 18.224 53.8751 23.728C53.8751 27.312 52.8191 30.416 50.7071 33.04C48.5951 35.6 45.3631 37.232 41.0111 37.936V38.032C45.8751 38.672 49.4911 40.368 51.8591 43.12C54.2911 45.808 55.5071 49.072 55.5071 52.912C55.5071 58.352 53.5871 62.576 49.7471 65.584C45.9071 68.528 40.1471 70 32.4671 70H0.211126ZM16.1471 58.384H29.6831C32.6911 58.384 34.9311 57.776 36.4031 56.56C37.8751 55.344 38.6111 53.584 38.6111 51.28C38.6111 49.04 37.8751 47.344 36.4031 46.192C34.9311 44.976 32.6911 44.368 29.6831 44.368H16.1471V58.384ZM16.1471 32.56H28.1471C34.0351 32.56 36.9791 30.256 36.9791 25.648C36.9791 21.04 34.0351 18.736 28.1471 18.736H16.1471V32.56ZM72.8441 16.432C69.5161 16.432 67.0841 15.824 65.5481 14.608C64.0761 13.328 63.3401 11.344 63.3401 8.65599C63.3401 5.904 64.0761 3.92 65.5481 2.704C67.0841 1.424 69.5161 0.783998 72.8441 0.783998C76.1081 0.783998 78.5081 1.424 80.0441 2.704C81.5801 3.92 82.3481 5.904 82.3481 8.65599C82.3481 11.344 81.5801 13.328 80.0441 14.608C78.5081 15.824 76.1081 16.432 72.8441 16.432ZM81.0041 22V70H64.6841V22H81.0041ZM116.046 70.96C110.734 70.96 106.126 69.968 102.222 67.984C98.3816 66 95.4056 63.152 93.2936 59.44C91.1816 55.728 90.1256 51.248 90.1256 46C90.1256 40.752 91.1816 36.272 93.2936 32.56C95.4056 28.848 98.3496 26 102.126 24.016C105.966 22.032 110.35 21.04 115.278 21.04C120.334 21.04 124.622 22.032 128.142 24.016C131.726 25.936 134.446 28.624 136.302 32.08C138.158 35.472 139.086 39.376 139.086 43.792C139.086 44.944 139.054 46.096 138.99 47.248C138.926 48.4 138.83 49.36 138.702 50.128H100.686V41.392H131.502L123.726 44.368C123.726 40.528 123.022 37.584 121.614 35.536C120.27 33.488 118.158 32.464 115.278 32.464C113.23 32.464 111.47 32.944 109.998 33.904C108.59 34.864 107.502 36.368 106.734 38.416C106.03 40.464 105.678 43.088 105.678 46.288C105.678 49.424 106.094 51.984 106.926 53.968C107.758 55.888 108.942 57.296 110.478 58.192C112.014 59.024 113.87 59.44 116.046 59.44C118.478 59.44 120.398 58.96 121.806 58C123.278 57.04 124.366 55.696 125.07 53.968L138.126 58.288C137.23 61.04 135.662 63.376 133.422 65.296C131.246 67.152 128.622 68.56 125.55 69.52C122.542 70.48 119.374 70.96 116.046 70.96ZM148.215 70V22H162.807L163.671 38.512L161.847 36.688C162.487 33.232 163.607 30.352 165.207 28.048C166.871 25.744 168.919 24.016 171.351 22.864C173.847 21.648 176.631 21.04 179.703 21.04C183.031 21.04 185.911 21.68 188.343 22.96C190.839 24.24 192.791 26.128 194.199 28.624C195.607 31.12 196.311 34.256 196.311 38.032V70H179.991V42.352C179.991 39.024 179.351 36.72 178.071 35.44C176.791 34.16 175.159 33.52 173.175 33.52C171.639 33.52 170.199 33.904 168.855 34.672C167.511 35.376 166.455 36.528 165.687 38.128C164.919 39.728 164.535 41.872 164.535 44.56V70H148.215ZM237.822 22H254.718L237.438 70H217.95L200.67 22H217.854L227.742 58.576L237.822 22ZM283.014 70.96C277.702 70.96 273.094 69.968 269.19 67.984C265.35 66 262.374 63.152 260.262 59.44C258.15 55.728 257.094 51.248 257.094 46C257.094 40.752 258.15 36.272 260.262 32.56C262.374 28.848 265.318 26 269.094 24.016C272.934 22.032 277.318 21.04 282.246 21.04C287.302 21.04 291.59 22.032 295.11 24.016C298.694 25.936 301.414 28.624 303.27 32.08C305.126 35.472 306.054 39.376 306.054 43.792C306.054 44.944 306.022 46.096 305.958 47.248C305.894 48.4 305.798 49.36 305.67 50.128H267.654V41.392H298.47L290.694 44.368C290.694 40.528 289.99 37.584 288.582 35.536C287.238 33.488 285.126 32.464 282.246 32.464C280.198 32.464 278.438 32.944 276.966 33.904C275.558 34.864 274.47 36.368 273.702 38.416C272.998 40.464 272.646 43.088 272.646 46.288C272.646 49.424 273.062 51.984 273.894 53.968C274.726 55.888 275.91 57.296 277.446 58.192C278.982 59.024 280.838 59.44 283.014 59.44C285.446 59.44 287.366 58.96 288.774 58C290.246 57.04 291.334 55.696 292.038 53.968L305.094 58.288C304.198 61.04 302.63 63.376 300.39 65.296C298.214 67.152 295.59 68.56 292.518 69.52C289.51 70.48 286.342 70.96 283.014 70.96ZM315.184 70V22H329.776L330.64 38.512L328.816 36.688C329.456 33.232 330.576 30.352 332.176 28.048C333.84 25.744 335.888 24.016 338.32 22.864C340.816 21.648 343.6 21.04 346.672 21.04C350 21.04 352.88 21.68 355.312 22.96C357.808 24.24 359.76 26.128 361.168 28.624C362.576 31.12 363.28 34.256 363.28 38.032V70H346.96V42.352C346.96 39.024 346.32 36.72 345.04 35.44C343.76 34.16 342.128 33.52 340.144 33.52C338.608 33.52 337.168 33.904 335.824 34.672C334.48 35.376 333.424 36.528 332.656 38.128C331.888 39.728 331.504 41.872 331.504 44.56V70H315.184ZM382.875 16.432C379.547 16.432 377.115 15.824 375.579 14.608C374.107 13.328 373.371 11.344 373.371 8.65599C373.371 5.904 374.107 3.92 375.579 2.704C377.115 1.424 379.547 0.783998 382.875 0.783998C386.139 0.783998 388.539 1.424 390.075 2.704C391.611 3.92 392.379 5.904 392.379 8.65599C392.379 11.344 391.611 13.328 390.075 14.608C388.539 15.824 386.139 16.432 382.875 16.432ZM391.035 22V70H374.715V22H391.035ZM420.317 70.96C416.349 70.96 412.861 70 409.853 68.08C406.909 66.096 404.605 63.248 402.941 59.536C401.341 55.824 400.541 51.376 400.541 46.192C400.541 40.816 401.373 36.272 403.037 32.56C404.765 28.848 407.133 26 410.141 24.016C413.213 22.032 416.733 21.04 420.701 21.04C425.053 21.04 428.541 22.384 431.165 25.072C433.853 27.696 435.581 31.056 436.349 35.152L434.813 37.168V1.648H451.133V70H436.541L435.485 53.68L437.405 55.12C437.021 58.32 436.029 61.104 434.429 63.472C432.893 65.84 430.909 67.696 428.477 69.04C426.109 70.32 423.389 70.96 420.317 70.96ZM425.981 58.96C427.837 58.96 429.405 58.48 430.685 57.52C432.029 56.496 433.053 54.992 433.757 53.008C434.461 51.024 434.813 48.592 434.813 45.712C434.813 43.024 434.461 40.752 433.757 38.896C433.117 36.976 432.125 35.536 430.781 34.576C429.501 33.552 427.933 33.04 426.077 33.04C423.261 33.04 421.021 34.096 419.357 36.208C417.757 38.256 416.957 41.52 416.957 46C416.957 50.48 417.757 53.776 419.357 55.888C420.957 57.936 423.165 58.96 425.981 58.96ZM485.688 21.04C490.744 21.04 495.16 22.032 498.936 24.016C502.776 25.936 505.752 28.784 507.864 32.56C510.04 36.272 511.128 40.752 511.128 46C511.128 51.248 510.04 55.76 507.864 59.536C505.752 63.248 502.776 66.096 498.936 68.08C495.16 70 490.744 70.96 485.688 70.96C480.76 70.96 476.376 70 472.536 68.08C468.696 66.096 465.688 63.248 463.512 59.536C461.4 55.76 460.344 51.248 460.344 46C460.344 40.752 461.4 36.272 463.512 32.56C465.688 28.784 468.696 25.936 472.536 24.016C476.376 22.032 480.76 21.04 485.688 21.04ZM485.688 32.656C483.832 32.656 482.232 33.104 480.888 34C479.544 34.896 478.52 36.336 477.816 38.32C477.112 40.304 476.76 42.864 476.76 46C476.76 49.136 477.112 51.696 477.816 53.68C478.52 55.6 479.544 57.04 480.888 58C482.232 58.896 483.832 59.344 485.688 59.344C487.608 59.344 489.24 58.896 490.584 58C491.928 57.04 492.952 55.6 493.656 53.68C494.36 51.696 494.712 49.136 494.712 46C494.712 42.864 494.36 40.304 493.656 38.32C492.952 36.336 491.928 34.896 490.584 34C489.24 33.104 487.608 32.656 485.688 32.656Z" fill="white"/>
<path d="M526.873 53.488C529.881 53.488 532.217 54.256 533.881 55.792C535.609 57.328 536.473 59.472 536.473 62.224C536.473 64.912 535.609 67.024 533.881 68.56C532.217 70.096 529.881 70.864 526.873 70.864C523.929 70.864 521.593 70.096 519.865 68.56C518.137 67.024 517.273 64.912 517.273 62.224C517.273 59.472 518.137 57.328 519.865 55.792C521.593 54.256 523.929 53.488 526.873 53.488Z" fill="#CAD201"/>
</svg>
