<svg width="235" height="70" viewBox="0 0 235 70" fill="none" xmlns="http://www.w3.org/2000/svg">
<path d="M57.3646 5.64V69H40.8526V5.64H57.3646ZM16.6606 5.64V69H0.148626V5.64H16.6606ZM49.6846 30.696V43.464H8.21263V30.696H49.6846ZM92.8134 20.04C97.8694 20.04 102.285 21.032 106.061 23.016C109.901 24.936 112.877 27.784 114.989 31.56C117.165 35.272 118.253 39.752 118.253 45C118.253 50.248 117.165 54.76 114.989 58.536C112.877 62.248 109.901 65.096 106.061 67.08C102.285 69 97.8694 69.96 92.8134 69.96C87.8854 69.96 83.5014 69 79.6614 67.08C75.8214 65.096 72.8134 62.248 70.6374 58.536C68.5254 54.76 67.4694 50.248 67.4694 45C67.4694 39.752 68.5254 35.272 70.6374 31.56C72.8134 27.784 75.8214 24.936 79.6614 23.016C83.5014 21.032 87.8854 20.04 92.8134 20.04ZM92.8134 31.656C90.9574 31.656 89.3574 32.104 88.0134 33C86.6694 33.896 85.6454 35.336 84.9414 37.32C84.2374 39.304 83.8854 41.864 83.8854 45C83.8854 48.136 84.2374 50.696 84.9414 52.68C85.6454 54.6 86.6694 56.04 88.0134 57C89.3574 57.896 90.9574 58.344 92.8134 58.344C94.7334 58.344 96.3654 57.896 97.7094 57C99.0534 56.04 100.077 54.6 100.781 52.68C101.485 50.696 101.837 48.136 101.837 45C101.837 41.864 101.485 39.304 100.781 37.32C100.077 35.336 99.0534 33.896 97.7094 33C96.3654 32.104 94.7334 31.656 92.8134 31.656ZM143.562 0.647999V52.68C143.562 54.792 143.914 56.296 144.618 57.192C145.322 58.088 146.506 58.536 148.17 58.536C149.13 58.536 149.93 58.472 150.57 58.344C151.21 58.216 151.978 58.024 152.874 57.768L151.818 67.56C150.666 68.264 149.162 68.84 147.306 69.288C145.45 69.736 143.626 69.96 141.834 69.96C136.714 69.96 133.002 68.776 130.698 66.408C128.394 64.04 127.242 60.168 127.242 54.792V0.647999H143.562ZM186.374 38.568C186.374 36.328 185.734 34.568 184.454 33.288C183.238 31.944 181.574 31.272 179.462 31.272C177.35 31.272 175.526 31.816 173.99 32.904C172.518 33.928 171.494 35.784 170.918 38.472L157.094 35.208C157.99 30.6 160.358 26.92 164.198 24.168C168.038 21.416 173.446 20.04 180.422 20.04C185.094 20.04 189.062 20.744 192.326 22.152C195.654 23.496 198.182 25.544 199.91 28.296C201.702 30.984 202.598 34.312 202.598 38.28V55.848C202.598 58.344 203.718 59.592 205.958 59.592C207.11 59.592 208.038 59.464 208.742 59.208L207.782 68.52C205.862 69.416 203.526 69.864 200.774 69.864C198.278 69.864 196.07 69.48 194.15 68.712C192.23 67.88 190.726 66.664 189.638 65.064C188.55 63.4 188.006 61.32 188.006 58.824V58.248L189.83 57.576C189.83 60.328 188.998 62.632 187.334 64.488C185.734 66.344 183.622 67.72 180.998 68.616C178.438 69.512 175.75 69.96 172.934 69.96C169.67 69.96 166.822 69.448 164.39 68.424C161.958 67.4 160.07 65.928 158.726 64.008C157.446 62.024 156.806 59.592 156.806 56.712C156.806 53.256 157.83 50.408 159.878 48.168C161.99 45.864 165.286 44.264 169.766 43.368L187.91 39.624L187.814 48.264L178.598 50.184C176.678 50.568 175.238 51.144 174.278 51.912C173.382 52.616 172.934 53.704 172.934 55.176C172.934 56.584 173.446 57.64 174.47 58.344C175.494 59.048 176.71 59.4 178.118 59.4C179.206 59.4 180.23 59.24 181.19 58.92C182.214 58.6 183.11 58.12 183.878 57.48C184.646 56.776 185.254 55.912 185.702 54.888C186.15 53.864 186.374 52.648 186.374 51.24V38.568Z" fill="white"/>
<path d="M224.936 52.488C227.944 52.488 230.28 53.256 231.944 54.792C233.672 56.328 234.536 58.472 234.536 61.224C234.536 63.912 233.672 66.024 231.944 67.56C230.28 69.096 227.944 69.864 224.936 69.864C221.992 69.864 219.656 69.096 217.928 67.56C216.2 66.024 215.336 63.912 215.336 61.224C215.336 58.472 216.2 56.328 217.928 54.792C219.656 53.256 221.992 52.488 224.936 52.488Z" fill="#CAD201"/>
</svg>
