<svg width="595" height="141" viewBox="0 0 595 141" fill="none" xmlns="http://www.w3.org/2000/svg">
<path d="M8.093 84V16.8H23.645V84H8.093ZM69.929 31.584C74.025 31.584 77.673 32.416 80.873 34.08C84.137 35.68 86.697 38.176 88.553 41.568C90.409 44.896 91.337 49.184 91.337 54.432V84H76.361V56.736C76.361 52.576 75.433 49.504 73.577 47.52C71.785 45.536 69.225 44.544 65.897 44.544C63.529 44.544 61.385 45.056 59.465 46.08C57.609 47.04 56.137 48.544 55.049 50.592C54.025 52.64 53.513 55.264 53.513 58.464V84H38.537V32.352H52.841V46.656L50.153 42.336C52.009 38.88 54.665 36.224 58.121 34.368C61.577 32.512 65.513 31.584 69.929 31.584ZM126.032 84.768C119.952 84.768 115.216 83.232 111.824 80.16C108.432 77.024 106.736 72.384 106.736 66.24V20.928H121.712V66.048C121.712 68.224 122.288 69.92 123.44 71.136C124.592 72.288 126.16 72.864 128.144 72.864C130.512 72.864 132.528 72.224 134.192 70.944L138.224 81.504C136.688 82.592 134.832 83.424 132.656 84C130.544 84.512 128.336 84.768 126.032 84.768ZM98.768 45.024V33.504H134.576V45.024H98.768ZM146.631 84V32.352H160.935V46.944L158.919 42.72C160.455 39.072 162.919 36.32 166.311 34.464C169.703 32.544 173.831 31.584 178.695 31.584V45.408C178.055 45.344 177.479 45.312 176.967 45.312C176.455 45.248 175.911 45.216 175.335 45.216C171.239 45.216 167.911 46.4 165.351 48.768C162.855 51.072 161.607 54.688 161.607 59.616V84H146.631ZM211.801 84.768C206.297 84.768 201.401 83.616 197.113 81.312C192.889 79.008 189.529 75.872 187.033 71.904C184.601 67.872 183.385 63.296 183.385 58.176C183.385 52.992 184.601 48.416 187.033 44.448C189.529 40.416 192.889 37.28 197.113 35.04C201.401 32.736 206.297 31.584 211.801 31.584C217.241 31.584 222.105 32.736 226.393 35.04C230.681 37.28 234.041 40.384 236.473 44.352C238.905 48.32 240.121 52.928 240.121 58.176C240.121 63.296 238.905 67.872 236.473 71.904C234.041 75.872 230.681 79.008 226.393 81.312C222.105 83.616 217.241 84.768 211.801 84.768ZM211.801 72.48C214.297 72.48 216.537 71.904 218.521 70.752C220.505 69.6 222.073 67.968 223.225 65.856C224.377 63.68 224.953 61.12 224.953 58.176C224.953 55.168 224.377 52.608 223.225 50.496C222.073 48.384 220.505 46.752 218.521 45.6C216.537 44.448 214.297 43.872 211.801 43.872C209.305 43.872 207.065 44.448 205.081 45.6C203.097 46.752 201.497 48.384 200.281 50.496C199.129 52.608 198.553 55.168 198.553 58.176C198.553 61.12 199.129 63.68 200.281 65.856C201.497 67.968 203.097 69.6 205.081 70.752C207.065 71.904 209.305 72.48 211.801 72.48ZM272.307 84.768C267.443 84.768 263.059 83.68 259.155 81.504C255.251 79.264 252.147 76.16 249.843 72.192C247.603 68.224 246.483 63.552 246.483 58.176C246.483 52.736 247.603 48.032 249.843 44.064C252.147 40.096 255.251 37.024 259.155 34.848C263.059 32.672 267.443 31.584 272.307 31.584C276.659 31.584 280.467 32.544 283.731 34.464C286.995 36.384 289.523 39.296 291.315 43.2C293.107 47.104 294.003 52.096 294.003 58.176C294.003 64.192 293.139 69.184 291.411 73.152C289.683 77.056 287.187 79.968 283.923 81.888C280.723 83.808 276.851 84.768 272.307 84.768ZM274.899 72.48C277.331 72.48 279.539 71.904 281.523 70.752C283.507 69.6 285.075 67.968 286.227 65.856C287.443 63.68 288.051 61.12 288.051 58.176C288.051 55.168 287.443 52.608 286.227 50.496C285.075 48.384 283.507 46.752 281.523 45.6C279.539 44.448 277.331 43.872 274.899 43.872C272.403 43.872 270.163 44.448 268.179 45.6C266.195 46.752 264.595 48.384 263.379 50.496C262.227 52.608 261.651 55.168 261.651 58.176C261.651 61.12 262.227 63.68 263.379 65.856C264.595 67.968 266.195 69.6 268.179 70.752C270.163 71.904 272.403 72.48 274.899 72.48ZM288.435 84V73.44L288.723 58.08L287.763 42.816V12.768H302.739V84H288.435ZM338.392 84.768C334.104 84.768 330.264 83.936 326.872 82.272C323.544 80.608 320.952 78.08 319.096 74.688C317.24 71.232 316.312 66.848 316.312 61.536V32.352H331.288V59.328C331.288 63.616 332.184 66.784 333.976 68.832C335.832 70.816 338.424 71.808 341.752 71.808C344.056 71.808 346.104 71.328 347.896 70.368C349.688 69.344 351.096 67.808 352.12 65.76C353.144 63.648 353.656 61.024 353.656 57.888V32.352H368.632V84H354.424V69.792L357.016 73.92C355.288 77.504 352.728 80.224 349.336 82.08C346.008 83.872 342.36 84.768 338.392 84.768ZM407.466 84.768C401.898 84.768 396.938 83.648 392.586 81.408C388.234 79.104 384.81 75.936 382.314 71.904C379.882 67.872 378.666 63.296 378.666 58.176C378.666 52.992 379.882 48.416 382.314 44.448C384.81 40.416 388.234 37.28 392.586 35.04C396.938 32.736 401.898 31.584 407.466 31.584C412.906 31.584 417.642 32.736 421.674 35.04C425.706 37.28 428.682 40.512 430.602 44.736L418.986 50.976C417.642 48.544 415.946 46.752 413.898 45.6C411.914 44.448 409.738 43.872 407.37 43.872C404.81 43.872 402.506 44.448 400.458 45.6C398.41 46.752 396.778 48.384 395.562 50.496C394.41 52.608 393.834 55.168 393.834 58.176C393.834 61.184 394.41 63.744 395.562 65.856C396.778 67.968 398.41 69.6 400.458 70.752C402.506 71.904 404.81 72.48 407.37 72.48C409.738 72.48 411.914 71.936 413.898 70.848C415.946 69.696 417.642 67.872 418.986 65.376L430.602 71.712C428.682 75.872 425.706 79.104 421.674 81.408C417.642 83.648 412.906 84.768 407.466 84.768ZM438.943 84V32.352H453.919V84H438.943ZM446.431 25.152C443.679 25.152 441.439 24.352 439.711 22.752C437.983 21.152 437.119 19.168 437.119 16.8C437.119 14.432 437.983 12.448 439.711 10.848C441.439 9.248 443.679 8.44799 446.431 8.44799C449.183 8.44799 451.423 9.216 453.151 10.752C454.879 12.224 455.743 14.144 455.743 16.512C455.743 19.008 454.879 21.088 453.151 22.752C451.487 24.352 449.247 25.152 446.431 25.152ZM499.21 31.584C503.306 31.584 506.954 32.416 510.154 34.08C513.418 35.68 515.978 38.176 517.834 41.568C519.69 44.896 520.618 49.184 520.618 54.432V84H505.642V56.736C505.642 52.576 504.714 49.504 502.858 47.52C501.066 45.536 498.506 44.544 495.178 44.544C492.81 44.544 490.666 45.056 488.746 46.08C486.89 47.04 485.418 48.544 484.33 50.592C483.306 52.64 482.794 55.264 482.794 58.464V84H467.818V32.352H482.122V46.656L479.434 42.336C481.29 38.88 483.946 36.224 487.402 34.368C490.858 32.512 494.794 31.584 499.21 31.584ZM558.856 103.392C553.992 103.392 549.288 102.784 544.744 101.568C540.264 100.416 536.52 98.656 533.512 96.288L539.464 85.536C541.64 87.328 544.392 88.736 547.72 89.76C551.112 90.848 554.44 91.392 557.704 91.392C563.016 91.392 566.856 90.208 569.224 87.84C571.656 85.472 572.872 81.952 572.872 77.28V69.504L573.832 56.544L573.64 43.488V32.352H587.848V75.36C587.848 84.96 585.352 92.032 580.36 96.576C575.368 101.12 568.2 103.392 558.856 103.392ZM556.552 81.504C551.752 81.504 547.4 80.48 543.496 78.432C539.656 76.32 536.552 73.408 534.184 69.696C531.88 65.92 530.728 61.536 530.728 56.544C530.728 51.488 531.88 47.104 534.184 43.392C536.552 39.616 539.656 36.704 543.496 34.656C547.4 32.608 551.752 31.584 556.552 31.584C560.904 31.584 564.744 32.48 568.072 34.272C571.4 36 573.992 38.72 575.848 42.432C577.704 46.08 578.632 50.784 578.632 56.544C578.632 62.24 577.704 66.944 575.848 70.656C573.992 74.304 571.4 77.024 568.072 78.816C564.744 80.608 560.904 81.504 556.552 81.504ZM559.528 69.216C562.152 69.216 564.488 68.704 566.536 67.68C568.584 66.592 570.184 65.088 571.336 63.168C572.488 61.248 573.064 59.04 573.064 56.544C573.064 53.984 572.488 51.776 571.336 49.92C570.184 48 568.584 46.528 566.536 45.504C564.488 44.416 562.152 43.872 559.528 43.872C556.904 43.872 554.568 44.416 552.52 45.504C550.472 46.528 548.84 48 547.624 49.92C546.472 51.776 545.896 53.984 545.896 56.544C545.896 59.04 546.472 61.248 547.624 63.168C548.84 65.088 550.472 66.592 552.52 67.68C554.568 68.704 556.904 69.216 559.528 69.216Z" fill="#222225"/>
<path d="M187.186 133.965C185.529 133.965 183.907 133.662 182.321 133.055C180.757 132.425 179.346 131.48 178.086 130.22C176.872 128.983 175.939 127.595 175.286 126.055C174.656 124.492 174.341 122.847 174.341 121.12C174.341 119.37 174.656 117.725 175.286 116.185C175.939 114.622 176.872 113.233 178.086 112.02C179.346 110.76 180.769 109.815 182.356 109.185C183.942 108.555 185.552 108.24 187.186 108.24C188.842 108.24 190.452 108.555 192.016 109.185C193.602 109.815 195.026 110.76 196.286 112.02L192.121 116.185C191.444 115.508 190.674 115.007 189.811 114.68C188.947 114.33 188.072 114.155 187.186 114.155C186.299 114.155 185.424 114.33 184.561 114.68C183.721 115.007 182.962 115.508 182.286 116.185C181.632 116.862 181.131 117.62 180.781 118.46C180.431 119.3 180.256 120.187 180.256 121.12C180.256 122.053 180.431 122.94 180.781 123.78C181.131 124.597 181.632 125.343 182.286 126.02C182.962 126.697 183.721 127.21 184.561 127.56C185.424 127.887 186.299 128.05 187.186 128.05C188.072 128.05 188.947 127.887 189.811 127.56C190.674 127.21 191.444 126.697 192.121 126.02L196.286 130.22C195.026 131.48 193.614 132.425 192.051 133.055C190.487 133.662 188.866 133.965 187.186 133.965ZM212.402 134L211.387 130.885H203.302L202.252 134H195.987L204.737 108.31H210.337L218.632 134H212.402ZM205.332 124.97H209.497L207.467 118.74L205.332 124.97ZM226.9 134.49C226.083 134.49 225.266 134.373 224.45 134.14C223.656 133.93 222.898 133.592 222.175 133.125C220.915 132.308 219.935 131.258 219.235 129.975C218.535 128.668 218.185 127.245 218.185 125.705H224.1C224.1 126.405 224.251 126.953 224.555 127.35C224.858 127.723 225.126 127.98 225.36 128.12C225.78 128.4 226.235 128.552 226.725 128.575C227.215 128.598 227.693 128.505 228.16 128.295C228.486 128.155 228.743 127.98 228.93 127.77C229.14 127.56 229.291 127.362 229.385 127.175C229.501 126.965 229.571 126.767 229.595 126.58C229.618 126.393 229.63 126.242 229.63 126.125C229.63 126.008 229.618 125.857 229.595 125.67C229.571 125.483 229.501 125.285 229.385 125.075C229.291 124.865 229.14 124.667 228.93 124.48C228.743 124.27 228.486 124.083 228.16 123.92C227.903 123.803 227.623 123.698 227.32 123.605C227.04 123.512 226.736 123.407 226.41 123.29C225.826 123.103 225.22 122.893 224.59 122.66C223.96 122.427 223.33 122.112 222.7 121.715C221.883 121.202 221.195 120.56 220.635 119.79C220.075 119.02 219.666 118.192 219.41 117.305C219.176 116.418 219.095 115.508 219.165 114.575C219.258 113.618 219.526 112.708 219.97 111.845C220.39 111.052 220.915 110.363 221.545 109.78C222.175 109.197 222.875 108.742 223.645 108.415C224.415 108.065 225.243 107.855 226.13 107.785C227.016 107.715 227.915 107.797 228.825 108.03C229.711 108.24 230.516 108.578 231.24 109.045C231.963 109.488 232.581 110.037 233.095 110.69C233.631 111.32 234.04 112.032 234.32 112.825C234.6 113.618 234.74 114.447 234.74 115.31H228.825C228.825 114.773 228.65 114.4 228.3 114.19C227.973 113.98 227.681 113.84 227.425 113.77C227.378 113.77 227.261 113.758 227.075 113.735C226.911 113.688 226.713 113.688 226.48 113.735C226.27 113.758 226.048 113.84 225.815 113.98C225.581 114.097 225.395 114.295 225.255 114.575C225.068 114.948 225.033 115.345 225.15 115.765C225.266 116.162 225.5 116.477 225.85 116.71C226.176 116.897 226.538 117.072 226.935 117.235C227.331 117.375 227.751 117.515 228.195 117.655C228.591 117.772 228.988 117.9 229.385 118.04C229.805 118.18 230.225 118.343 230.645 118.53C232.185 119.23 233.386 120.257 234.25 121.61C235.136 122.963 235.58 124.468 235.58 126.125C235.58 127.758 235.136 129.252 234.25 130.605C233.386 131.958 232.185 132.985 230.645 133.685C230.038 133.965 229.42 134.163 228.79 134.28C228.16 134.42 227.53 134.49 226.9 134.49ZM254.553 114.225H243.983V118.11H252.558V124.025H243.983V128.085H254.553V134H238.068V108.345L254.553 108.31V114.225ZM273.828 134.49C273.012 134.49 272.195 134.373 271.378 134.14C270.585 133.93 269.827 133.592 269.103 133.125C267.843 132.308 266.863 131.258 266.163 129.975C265.463 128.668 265.113 127.245 265.113 125.705H271.028C271.028 126.405 271.18 126.953 271.483 127.35C271.787 127.723 272.055 127.98 272.288 128.12C272.708 128.4 273.163 128.552 273.653 128.575C274.143 128.598 274.622 128.505 275.088 128.295C275.415 128.155 275.672 127.98 275.858 127.77C276.068 127.56 276.22 127.362 276.313 127.175C276.43 126.965 276.5 126.767 276.523 126.58C276.547 126.393 276.558 126.242 276.558 126.125C276.558 126.008 276.547 125.857 276.523 125.67C276.5 125.483 276.43 125.285 276.313 125.075C276.22 124.865 276.068 124.667 275.858 124.48C275.672 124.27 275.415 124.083 275.088 123.92C274.832 123.803 274.552 123.698 274.248 123.605C273.968 123.512 273.665 123.407 273.338 123.29C272.755 123.103 272.148 122.893 271.518 122.66C270.888 122.427 270.258 122.112 269.628 121.715C268.812 121.202 268.123 120.56 267.563 119.79C267.003 119.02 266.595 118.192 266.338 117.305C266.105 116.418 266.023 115.508 266.093 114.575C266.187 113.618 266.455 112.708 266.898 111.845C267.318 111.052 267.843 110.363 268.473 109.78C269.103 109.197 269.803 108.742 270.573 108.415C271.343 108.065 272.172 107.855 273.058 107.785C273.945 107.715 274.843 107.797 275.753 108.03C276.64 108.24 277.445 108.578 278.168 109.045C278.892 109.488 279.51 110.037 280.023 110.69C280.56 111.32 280.968 112.032 281.248 112.825C281.528 113.618 281.668 114.447 281.668 115.31H275.753C275.753 114.773 275.578 114.4 275.228 114.19C274.902 113.98 274.61 113.84 274.353 113.77C274.307 113.77 274.19 113.758 274.003 113.735C273.84 113.688 273.642 113.688 273.408 113.735C273.198 113.758 272.977 113.84 272.743 113.98C272.51 114.097 272.323 114.295 272.183 114.575C271.997 114.948 271.962 115.345 272.078 115.765C272.195 116.162 272.428 116.477 272.778 116.71C273.105 116.897 273.467 117.072 273.863 117.235C274.26 117.375 274.68 117.515 275.123 117.655C275.52 117.772 275.917 117.9 276.313 118.04C276.733 118.18 277.153 118.343 277.573 118.53C279.113 119.23 280.315 120.257 281.178 121.61C282.065 122.963 282.508 124.468 282.508 126.125C282.508 127.758 282.065 129.252 281.178 130.605C280.315 131.958 279.113 132.985 277.573 133.685C276.967 133.965 276.348 134.163 275.718 134.28C275.088 134.42 274.458 134.49 273.828 134.49ZM298.528 108.205V114.155H293.593V134H287.678V114.155H282.778V108.205H298.528ZM310.143 134C308.836 134 307.6 133.767 306.433 133.3C305.266 132.81 304.228 132.122 303.318 131.235C302.385 130.302 301.661 129.252 301.148 128.085C300.658 126.918 300.401 125.67 300.378 124.34V108.275H306.293V124.305C306.293 125.332 306.678 126.23 307.448 127C308.218 127.723 309.128 128.085 310.178 128.085C310.691 128.085 311.181 127.98 311.648 127.77C312.115 127.56 312.523 127.28 312.873 126.93C313.223 126.58 313.491 126.172 313.678 125.705C313.865 125.238 313.958 124.737 313.958 124.2V108.275H319.873V124.165C319.896 125.495 319.651 126.755 319.138 127.945C318.648 129.135 317.96 130.173 317.073 131.06C316.21 131.947 315.183 132.658 313.993 133.195C312.826 133.708 311.578 133.977 310.248 134H310.143ZM329.33 108.205C331.033 108.298 332.632 108.707 334.125 109.43C335.642 110.153 336.948 111.098 338.045 112.265C339.165 113.432 340.04 114.785 340.67 116.325C341.323 117.865 341.65 119.51 341.65 121.26C341.65 122.987 341.335 124.608 340.705 126.125C340.075 127.618 339.2 128.937 338.08 130.08C336.983 131.223 335.688 132.145 334.195 132.845C332.702 133.522 331.08 133.907 329.33 134H323.415V108.17H329.33V108.205ZM329.33 128.05C330.24 127.957 331.08 127.723 331.85 127.35C332.643 126.953 333.32 126.463 333.88 125.88C334.463 125.273 334.918 124.573 335.245 123.78C335.572 122.987 335.735 122.147 335.735 121.26C335.735 120.35 335.572 119.487 335.245 118.67C334.918 117.83 334.463 117.095 333.88 116.465C333.297 115.812 332.62 115.287 331.85 114.89C331.08 114.47 330.24 114.213 329.33 114.12V128.05ZM346.99 134L349.965 126.72L341.18 108.1H347.725L353.01 119.265L357.525 108.1H363.93L353.395 134H346.99Z" fill="#222225"/>
<path d="M386.668 108.275C388.442 108.275 390.11 108.613 391.673 109.29C393.237 109.967 394.602 110.888 395.768 112.055C396.935 113.198 397.857 114.552 398.533 116.115C399.21 117.678 399.548 119.347 399.548 121.12C399.548 122.893 399.21 124.562 398.533 126.125C397.857 127.688 396.935 129.053 395.768 130.22C394.602 131.363 393.237 132.273 391.673 132.95C390.11 133.627 388.442 133.965 386.668 133.965C384.895 133.965 383.227 133.627 381.663 132.95C380.1 132.273 378.735 131.363 377.568 130.22C376.425 129.053 375.515 127.688 374.838 126.125C374.162 124.562 373.823 122.893 373.823 121.12C373.823 119.347 374.162 117.678 374.838 116.115C375.515 114.552 376.425 113.198 377.568 112.055C378.735 110.888 380.1 109.967 381.663 109.29C383.227 108.613 384.895 108.275 386.668 108.275ZM386.668 128.05C387.625 128.05 388.523 127.875 389.363 127.525C390.203 127.152 390.938 126.65 391.568 126.02C392.198 125.39 392.688 124.655 393.038 123.815C393.412 122.975 393.598 122.077 393.598 121.12C393.598 120.163 393.412 119.265 393.038 118.425C392.688 117.585 392.198 116.85 391.568 116.22C390.938 115.59 390.203 115.1 389.363 114.75C388.523 114.377 387.625 114.19 386.668 114.19C385.712 114.19 384.813 114.377 383.973 114.75C383.133 115.1 382.398 115.59 381.768 116.22C381.138 116.85 380.637 117.585 380.263 118.425C379.913 119.265 379.738 120.163 379.738 121.12C379.738 122.077 379.913 122.975 380.263 123.815C380.637 124.655 381.138 125.39 381.768 126.02C382.398 126.65 383.133 127.152 383.973 127.525C384.813 127.875 385.712 128.05 386.668 128.05ZM413.631 117.725C414.354 118.075 415.007 118.518 415.591 119.055C416.197 119.568 416.711 120.163 417.131 120.84C417.574 121.493 417.912 122.205 418.146 122.975C418.379 123.745 418.496 124.55 418.496 125.39C418.496 126.58 418.262 127.7 417.796 128.75C417.352 129.8 416.746 130.71 415.976 131.48C415.206 132.25 414.296 132.868 413.246 133.335C412.219 133.778 411.111 134 409.921 134C408.731 134 407.611 133.778 406.561 133.335C405.511 132.868 404.601 132.25 403.831 131.48C403.061 130.71 402.442 129.8 401.976 128.75C401.532 127.7 401.311 126.58 401.311 125.39H407.226C407.226 126.137 407.482 126.778 407.996 127.315C408.532 127.828 409.174 128.085 409.921 128.085C410.667 128.085 411.297 127.828 411.811 127.315C412.324 126.778 412.581 126.137 412.581 125.39C412.581 124.667 412.324 124.06 411.811 123.57C411.297 123.057 410.667 122.8 409.921 122.8H406.036V116.92L408.871 114.12H401.906V108.205H418.216V113.21L413.631 117.725Z" fill="#F55143"/>
</svg>
